<svg width="56" height="72" viewBox="0 0 56 72" fill="none" xmlns="http://www.w3.org/2000/svg">
<path d="M17.7618 11.0152C1.89372 16.1529 -0.36706 32.422 0.486063 39.9143H17.7618C24.6317 50.1895 32.9945 46.3363 36.3172 43.1253L31.8383 41.1987L43.3555 35.4189L48.4742 46.9785L43.9953 45.6941C34.7816 59.5657 21.3876 54.899 15.8423 50.8317L19.6813 45.6941L3.68525 45.0519L4.96494 61.7492L9.44383 57.2538C16.61 63.9327 28.6391 63.8898 33.7578 63.0336C55.2565 56.8684 56.3656 39.9143 54.2328 32.2079H37.5969C31.4544 20.9052 22.6672 25.7859 19.0415 29.6391L21.6008 30.9235L12.0032 36.0611L8.16415 23.8593L12.0032 25.7859C23.2644 11.9143 35.8906 17.8654 40.7961 22.5749L37.5969 25.7859H51.0336L50.3937 12.9419L47.1945 16.1529C43.9953 12.2996 33.6299 5.87763 17.7618 11.0152Z" fill="#FCFFFF"/>
<path d="M20.961 7.16204V0.740021H26.0797V7.16204H20.961Z" fill="#FCFFFF"/>
<path d="M29.9188 7.16204V0.740021H34.3977V7.16204H29.9188Z" fill="#FCFFFF"/>
<path d="M20.961 70.74V64.318H26.0797V70.74H20.961Z" fill="#FCFFFF"/>
<path d="M29.9188 70.74V64.318H34.3977V70.74H29.9188Z" fill="#FCFFFF"/>
<path d="M17.7618 11.0152C1.89372 16.1529 -0.36706 32.422 0.486063 39.9143H17.7618C24.6317 50.1895 32.9945 46.3363 36.3172 43.1253L31.8383 41.1987L43.3555 35.4189L48.4742 46.9785L43.9953 45.6941C34.7816 59.5657 21.3876 54.899 15.8423 50.8317L19.6813 45.6941L3.68525 45.0519L4.96494 61.7492L9.44383 57.2538C16.61 63.9327 28.6391 63.8898 33.7578 63.0336C55.2565 56.8684 56.3656 39.9143 54.2328 32.2079H37.5969C31.4544 20.9052 22.6672 25.7859 19.0415 29.6391L21.6008 30.9235L12.0032 36.0611L8.16415 23.8593L12.0032 25.7859C23.2644 11.9143 35.8906 17.8654 40.7961 22.5749L37.5969 25.7859H51.0336L50.3937 12.9419L47.1945 16.1529C43.9953 12.2996 33.6299 5.87763 17.7618 11.0152Z" stroke="#FCFFFF" stroke-width="0.630858"/>
<path d="M20.961 7.16204V0.740021H26.0797V7.16204H20.961Z" stroke="#FCFFFF" stroke-width="0.630858"/>
<path d="M29.9188 7.16204V0.740021H34.3977V7.16204H29.9188Z" stroke="#FCFFFF" stroke-width="0.630858"/>
<path d="M20.961 70.74V64.318H26.0797V70.74H20.961Z" stroke="#FCFFFF" stroke-width="0.630858"/>
<path d="M29.9188 70.74V64.318H34.3977V70.74H29.9188Z" stroke="#FCFFFF" stroke-width="0.630858"/>
</svg>
