<svg width="32" height="32" viewBox="0 0 32 32" fill="none" xmlns="http://www.w3.org/2000/svg">
<g clip-path="url(#clip0_379_388)">
<path fill-rule="evenodd" clip-rule="evenodd" d="M5.33333 2.13333C4.48464 2.13333 3.67071 2.47048 3.07059 3.07059C2.47048 3.67071 2.13333 4.48464 2.13333 5.33333V10.6667H0V5.33333C0 3.91885 0.561903 2.56229 1.5621 1.5621C2.56229 0.561903 3.91885 0 5.33333 0L10.6667 0V2.13333H5.33333ZM26.6667 2.13333H21.3333V0H26.6667C28.0812 0 29.4377 0.561903 30.4379 1.5621C31.4381 2.56229 32 3.91885 32 5.33333V10.6667H29.8667V5.33333C29.8667 4.48464 29.5295 3.67071 28.9294 3.07059C28.3293 2.47048 27.5154 2.13333 26.6667 2.13333ZM10.6667 12.8H8.53333V10.6667H10.6667V12.8ZM23.4667 12.8H21.3333V10.6667H23.4667V12.8ZM10.4533 18.56C11.0992 19.4211 11.9366 20.12 12.8993 20.6014C13.8621 21.0827 14.9236 21.3333 16 21.3333C17.0764 21.3333 18.138 21.0827 19.1007 20.6014C20.0634 20.12 20.9008 19.4211 21.5467 18.56L23.2533 19.84C19.6267 24.6763 12.3733 24.6763 8.74667 19.84L10.4533 18.56ZM0 26.6667V21.3333H2.13333V26.6667C2.13333 27.5154 2.47048 28.3293 3.07059 28.9294C3.67071 29.5295 4.48464 29.8667 5.33333 29.8667H10.6667V32H5.33333C3.91885 32 2.56229 31.4381 1.5621 30.4379C0.561903 29.4377 0 28.0812 0 26.6667ZM32 21.3333V26.6667C32 28.0812 31.4381 29.4377 30.4379 30.4379C29.4377 31.4381 28.0812 32 26.6667 32H21.3333V29.8667H26.6667C27.5154 29.8667 28.3293 29.5295 28.9294 28.9294C29.5295 28.3293 29.8667 27.5154 29.8667 26.6667V21.3333H32Z" fill="#0166F4"/>
</g>
<defs>
<clipPath id="clip0_379_388">
<rect width="32" height="32" fill="white"/>
</clipPath>
</defs>
</svg>
