<svg width="18" height="18" viewBox="0 0 18 18" fill="none" xmlns="http://www.w3.org/2000/svg">
<path fill-rule="evenodd" clip-rule="evenodd" d="M5 4C5 2.93913 5.42143 1.92172 6.17157 1.17157C6.92172 0.421427 7.93913 0 9 0C10.0609 0 11.0783 0.421427 11.8284 1.17157C12.5786 1.92172 13 2.93913 13 4C13 5.06087 12.5786 6.07828 11.8284 6.82843C11.0783 7.57857 10.0609 8 9 8C7.93913 8 6.92172 7.57857 6.17157 6.82843C5.42143 6.07828 5 5.06087 5 4ZM5 10C3.67392 10 2.40215 10.5268 1.46447 11.4645C0.526784 12.4021 0 13.6739 0 15C0 15.7956 0.316071 16.5587 0.87868 17.1213C1.44129 17.6839 2.20435 18 3 18H15C15.7956 18 16.5587 17.6839 17.1213 17.1213C17.6839 16.5587 18 15.7956 18 15C18 13.6739 17.4732 12.4021 16.5355 11.4645C15.5979 10.5268 14.3261 10 13 10H5Z" fill="#92BAF4"/>
</svg>
