<svg width="24" height="24" viewBox="0 0 24 24" fill="none" xmlns="http://www.w3.org/2000/svg">
<g clip-path="url(#clip0_66_6822)">
<path fill-rule="evenodd" clip-rule="evenodd" d="M11 7C11 5.93913 11.4214 4.92172 12.1716 4.17157C12.9217 3.42143 13.9391 3 15 3C16.0609 3 17.0783 3.42143 17.8284 4.17157C18.5786 4.92172 19 5.93913 19 7C19 8.06087 18.5786 9.07828 17.8284 9.82843C17.0783 10.5786 16.0609 11 15 11C13.9391 11 12.9217 10.5786 12.1716 9.82843C11.4214 9.07828 11 8.06087 11 7ZM11 13C9.67392 13 8.40215 13.5268 7.46447 14.4645C6.52678 15.4021 6 16.6739 6 18C6 18.7956 6.31607 19.5587 6.87868 20.1213C7.44129 20.6839 8.20435 21 9 21H21C21.7956 21 22.5587 20.6839 23.1213 20.1213C23.6839 19.5587 24 18.7956 24 18C24 16.6739 23.4732 15.4021 22.5355 14.4645C21.5979 13.5268 20.3261 13 19 13H11Z" fill="#92BAF4"/>
<path d="M5.64124 3.64124C4.75044 4.53204 4.25 5.74022 4.25 7C4.25 8.25978 4.75044 9.46796 5.64124 10.3588C6.53204 11.2496 7.74022 11.75 9 11.75C10.2598 11.75 11.468 11.2496 12.3588 10.3588C13.2496 9.46796 13.75 8.25978 13.75 7C13.75 5.74022 13.2496 4.53204 12.3588 3.64124C11.468 2.75044 10.2598 2.25 9 2.25C7.74022 2.25 6.53204 2.75044 5.64124 3.64124ZM5 12.25C3.47501 12.25 2.01247 12.8558 0.934136 13.9341C-0.144198 15.0125 -0.75 16.475 -0.75 18C-0.75 18.9946 -0.354912 19.9484 0.34835 20.6517C1.05161 21.3549 2.00544 21.75 3 21.75H15C15.9946 21.75 16.9484 21.3549 17.6517 20.6517C18.3549 19.9484 18.75 18.9946 18.75 18C18.75 16.475 18.1442 15.0125 17.0659 13.9341C15.9875 12.8558 14.525 12.25 13 12.25H5Z" fill="#92BAF4" stroke="white" stroke-width="1.5"/>
</g>
<defs>
<clipPath id="clip0_66_6822">
<rect width="24" height="24" fill="white"/>
</clipPath>
</defs>
</svg>
