<svg width="22" height="18" viewBox="0 0 22 18" fill="none" xmlns="http://www.w3.org/2000/svg">
<path d="M21 16V18H19V16H3V18H1V16C0.734784 16 0.48043 15.8946 0.292893 15.7071C0.105357 15.5196 0 15.2652 0 15V3C0 2.73479 0.105357 2.48043 0.292893 2.2929C0.48043 2.10536 0.734784 2 1 2H11.528C12.0902 1.37006 12.7793 0.866192 13.55 0.521495C14.3207 0.176799 15.1557 -0.000923798 16 3.61099e-06C17.777 3.61099e-06 19.374 0.773004 20.472 2H21C21.2652 2 21.5196 2.10536 21.7071 2.2929C21.8946 2.48043 22 2.73479 22 3V15C22 15.2652 21.8946 15.5196 21.7071 15.7071C21.5196 15.8946 21.2652 16 21 16ZM10.341 4H2V14H20V10.472C19.0071 11.3613 17.7464 11.8946 16.4168 11.9879C15.0872 12.0812 13.7644 11.7291 12.6571 10.9871C11.5498 10.2452 10.721 9.15565 10.3017 7.89046C9.88229 6.62527 9.89612 5.25646 10.341 4ZM16 10C17.0609 10 18.0783 9.57858 18.8284 8.82843C19.5786 8.07829 20 7.06087 20 6C20 4.93914 19.5786 3.92172 18.8284 3.17158C18.0783 2.42143 17.0609 2 16 2C14.9391 2 13.9217 2.42143 13.1716 3.17158C12.4214 3.92172 12 4.93914 12 6C12 7.06087 12.4214 8.07829 13.1716 8.82843C13.9217 9.57858 14.9391 10 16 10ZM4 10H6V12H4V10ZM7 10H9V12H7V10Z" fill="#454545"/>
</svg>
