<svg width="18" height="16" viewBox="0 0 18 16" fill="none" xmlns="http://www.w3.org/2000/svg">
<path d="M5.52299 7.77708C5.60822 7.86222 5.67583 7.96331 5.72196 8.07459C5.76809 8.18588 5.79184 8.30516 5.79184 8.42562C5.79184 8.54609 5.76809 8.66537 5.72196 8.77665C5.67583 8.88793 5.60822 8.98903 5.52299 9.07417L3.84824 10.7498H12.6666C12.9097 10.7498 13.1428 10.8464 13.3148 11.0183C13.4867 11.1902 13.5832 11.4234 13.5832 11.6665C13.5832 11.9096 13.4867 12.1428 13.3148 12.3147C13.1428 12.4866 12.9097 12.5832 12.6666 12.5832H3.84824L5.52391 14.2588C5.60907 14.3439 5.67664 14.445 5.72276 14.5562C5.76887 14.6674 5.79263 14.7866 5.79267 14.9071C5.79272 15.0275 5.76904 15.1467 5.72301 15.2579C5.67697 15.3692 5.60947 15.4703 5.52436 15.5555C5.43926 15.6406 5.33821 15.7082 5.22699 15.7543C5.11576 15.8004 4.99655 15.8242 4.87615 15.8242C4.75574 15.8243 4.63651 15.8006 4.52526 15.7546C4.414 15.7085 4.31291 15.641 4.22774 15.5559L0.986405 12.3146C0.814557 12.1427 0.718018 11.9096 0.718018 11.6665C0.718018 11.4234 0.814557 11.1903 0.986405 11.0184L4.22774 7.77708C4.39964 7.60523 4.63276 7.50869 4.87582 7.50869C5.11889 7.50869 5.35201 7.60523 5.52391 7.77708H5.52299ZM12.4768 0.443749C12.6347 0.28592 12.8447 0.191109 13.0674 0.177101C13.2902 0.163093 13.5105 0.230852 13.6868 0.367666L13.773 0.443749L17.0143 3.68508C17.1722 3.84293 17.267 4.05293 17.281 4.27571C17.295 4.49848 17.2272 4.71871 17.0904 4.89508L17.0143 4.98125L13.773 8.22167C13.608 8.38607 13.3867 8.48152 13.1539 8.48862C12.9211 8.49573 12.6943 8.41397 12.5197 8.25994C12.345 8.10591 12.2355 7.89116 12.2134 7.65931C12.1913 7.42747 12.2583 7.19591 12.4007 7.01167L12.4768 6.9255L14.1516 5.24983H5.33324C5.0996 5.24957 4.87488 5.16011 4.70498 4.99972C4.53509 4.83933 4.43286 4.62013 4.41916 4.38689C4.40547 4.15365 4.48136 3.92398 4.63132 3.74482C4.78127 3.56565 4.99398 3.45051 5.22599 3.42292L5.33324 3.4165H14.1525L12.4768 1.739C12.305 1.5671 12.2084 1.33398 12.2084 1.09092C12.2084 0.847848 12.305 0.615649 12.4768 0.443749Z" fill="white"/>
</svg>
